<svg id="visual" viewBox="0 0 540 960" width="540" height="960" xmlns="http://www.w3.org/2000/svg" xmlns:xlink="http://www.w3.org/1999/xlink" version="1.1"><rect x="0" y="0" width="540" height="960" fill="#25283d"></rect><path d="M0 750L54 746L108 757L162 739L216 731L270 729L324 743L378 754L432 764L486 744L540 752L540 961L486 961L432 961L378 961L324 961L270 961L216 961L162 961L108 961L54 961L0 961Z" fill="#f5730a"></path><path d="M0 774L54 766L108 780L162 806L216 763L270 752L324 753L378 750L432 794L486 788L540 766L540 961L486 961L432 961L378 961L324 961L270 961L216 961L162 961L108 961L54 961L0 961Z" fill="#df6009"></path><path d="M0 803L54 830L108 804L162 834L216 841L270 797L324 801L378 842L432 787L486 817L540 823L540 961L486 961L432 961L378 961L324 961L270 961L216 961L162 961L108 961L54 961L0 961Z" fill="#c94d08"></path><path d="M0 875L54 858L108 845L162 826L216 863L270 873L324 873L378 835L432 874L486 835L540 841L540 961L486 961L432 961L378 961L324 961L270 961L216 961L162 961L108 961L54 961L0 961Z" fill="#b33b06"></path><path d="M0 877L54 878L108 862L162 888L216 902L270 905L324 878L378 867L432 883L486 875L540 887L540 961L486 961L432 961L378 961L324 961L270 961L216 961L162 961L108 961L54 961L0 961Z" fill="#9d2804"></path><path d="M0 907L54 911L108 936L162 934L216 899L270 911L324 905L378 932L432 900L486 937L540 905L540 961L486 961L432 961L378 961L324 961L270 961L216 961L162 961L108 961L54 961L0 961Z" fill="#871400"></path></svg>