<svg id="visual" viewBox="0 0 900 600" width="900" height="600" xmlns="http://www.w3.org/2000/svg" xmlns:xlink="http://www.w3.org/1999/xlink" version="1.1"><rect x="0" y="0" width="900" height="600" fill="#25283d"></rect><path d="M0 469L90 466L180 473L270 462L360 457L450 455L540 464L630 471L720 477L810 465L900 470L900 601L810 601L720 601L630 601L540 601L450 601L360 601L270 601L180 601L90 601L0 601Z" fill="#f5730a"></path><path d="M0 483L90 478L180 487L270 503L360 477L450 469L540 470L630 468L720 496L810 492L900 478L900 601L810 601L720 601L630 601L540 601L450 601L360 601L270 601L180 601L90 601L0 601Z" fill="#df6009"></path><path d="M0 501L90 518L180 502L270 521L360 525L450 498L540 500L630 526L720 492L810 510L900 514L900 601L810 601L720 601L630 601L540 601L450 601L360 601L270 601L180 601L90 601L0 601Z" fill="#c94d08"></path><path d="M0 546L90 536L180 528L270 516L360 539L450 545L540 545L630 522L720 546L810 522L900 526L900 601L810 601L720 601L630 601L540 601L450 601L360 601L270 601L180 601L90 601L0 601Z" fill="#b33b06"></path><path d="M0 547L90 549L180 539L270 555L360 563L450 565L540 548L630 542L720 552L810 546L900 554L900 601L810 601L720 601L630 601L540 601L450 601L360 601L270 601L180 601L90 601L0 601Z" fill="#9d2804"></path><path d="M0 567L90 569L180 584L270 583L360 561L450 569L540 565L630 582L720 562L810 585L900 565L900 601L810 601L720 601L630 601L540 601L450 601L360 601L270 601L180 601L90 601L0 601Z" fill="#871400"></path></svg>