<svg id="svg" version="1.1" xmlns="http://www.w3.org/2000/svg" xmlns:xlink="http://www.w3.org/1999/xlink" width="400" height="345.33333333333337" viewBox="0, 0, 400,345.33333333333337"><g id="svgg"><path id="path0" d="M79.167 0.102 C 79.167 0.267,199.908 207.829,200.000 207.823 C 200.046 207.820,208.757 192.765,219.359 174.367 C 229.960 155.969,247.914 124.829,259.256 105.167 C 310.641 16.089,319.833 0.141,319.833 0.073 C 319.833 0.032,303.214 0.018,282.902 0.041 L 245.971 0.083 223.083 39.894 C 210.495 61.790,200.132 79.766,200.056 79.841 C 199.979 79.915,189.348 61.982,176.432 39.988 L 152.947 0.000 116.057 0.000 C 95.767 0.000,79.167 0.046,79.167 0.102 " stroke="none" fill="#344c5c" fill-rule="evenodd"></path><path id="path1" d="M0.000 0.082 C 0.000 0.174,4.192 7.488,5.193 9.142 C 5.545 9.724,5.833 10.227,5.833 10.259 C 5.833 10.291,6.272 11.053,6.808 11.951 C 7.344 12.849,8.816 15.383,10.079 17.583 C 11.342 19.783,12.841 22.371,13.409 23.333 C 13.978 24.296,14.899 25.871,15.456 26.833 C 17.868 31.001,20.734 35.962,21.040 36.500 C 21.222 36.821,21.769 37.758,22.254 38.583 C 22.740 39.408,24.395 42.258,25.933 44.917 C 28.787 49.853,29.368 50.854,31.493 54.500 C 32.161 55.646,32.937 56.996,33.218 57.500 C 33.499 58.004,34.212 59.242,34.803 60.250 C 35.395 61.258,36.027 62.346,36.208 62.667 C 36.389 62.987,36.935 63.925,37.421 64.750 C 37.907 65.575,39.562 68.425,41.099 71.083 C 43.954 76.020,44.535 77.020,46.660 80.667 C 47.328 81.813,48.104 83.162,48.385 83.667 C 48.665 84.171,49.379 85.408,49.970 86.417 C 50.561 87.425,51.193 88.513,51.375 88.833 C 51.556 89.154,52.102 90.092,52.588 90.917 C 53.073 91.742,54.728 94.592,56.265 97.250 C 57.802 99.908,59.542 102.908,60.131 103.917 C 60.721 104.925,61.611 106.462,62.109 107.333 C 62.607 108.204,63.085 109.029,63.172 109.167 C 63.321 109.404,65.838 113.764,66.540 115.000 C 66.722 115.321,67.269 116.258,67.754 117.083 C 68.240 117.908,69.895 120.758,71.432 123.417 C 72.969 126.075,74.708 129.075,75.298 130.083 C 75.887 131.092,76.777 132.629,77.275 133.500 C 77.774 134.371,78.252 135.196,78.338 135.333 C 78.487 135.571,81.005 139.930,81.707 141.167 C 81.889 141.487,82.435 142.425,82.921 143.250 C 83.407 144.075,85.062 146.925,86.598 149.583 C 88.135 152.242,89.875 155.242,90.465 156.250 C 91.054 157.258,91.944 158.796,92.442 159.667 C 92.940 160.537,93.418 161.362,93.505 161.500 C 93.654 161.738,96.171 166.097,96.873 167.333 C 97.055 167.654,97.602 168.592,98.088 169.417 C 98.574 170.242,100.186 173.017,101.670 175.583 C 105.423 182.072,108.494 187.370,108.676 187.667 C 108.836 187.929,111.469 192.494,112.040 193.500 C 112.222 193.821,112.769 194.758,113.255 195.583 C 113.740 196.408,115.352 199.183,116.837 201.750 C 118.321 204.317,120.484 208.051,121.643 210.050 C 122.802 212.048,123.928 213.998,124.145 214.383 C 124.362 214.768,125.154 216.133,125.905 217.417 C 127.522 220.179,128.409 221.706,132.002 227.917 C 133.487 230.483,135.651 234.218,136.809 236.216 C 137.968 238.214,139.094 240.164,139.311 240.550 C 139.529 240.935,140.321 242.300,141.072 243.583 C 142.689 246.345,143.576 247.873,147.169 254.083 C 148.654 256.650,150.817 260.385,151.976 262.383 C 153.135 264.381,154.261 266.331,154.478 266.716 C 154.695 267.101,155.487 268.467,156.239 269.750 C 157.855 272.512,158.742 274.040,162.336 280.250 C 163.821 282.817,165.984 286.551,167.143 288.550 C 168.302 290.548,169.428 292.498,169.645 292.883 C 169.862 293.268,170.654 294.633,171.405 295.917 C 173.308 299.167,178.384 307.927,179.373 309.667 C 179.555 309.987,180.102 310.925,180.588 311.750 C 181.073 312.575,182.729 315.425,184.266 318.083 C 185.803 320.742,187.410 323.517,187.837 324.250 C 188.264 324.983,189.499 327.121,190.580 329.000 C 191.662 330.879,192.922 333.054,193.381 333.833 C 193.839 334.612,194.362 335.512,194.543 335.833 C 194.723 336.154,195.269 337.092,195.755 337.917 C 196.241 338.742,197.348 340.651,198.215 342.160 C 199.082 343.668,199.865 344.927,199.956 344.957 C 200.103 345.006,201.042 343.442,204.733 337.000 C 205.337 335.946,205.901 334.971,205.987 334.833 C 206.073 334.696,207.492 332.258,209.140 329.417 C 210.789 326.575,213.727 321.512,215.669 318.167 C 217.611 314.821,219.585 311.408,220.057 310.583 C 221.084 308.788,220.608 309.610,224.277 303.294 C 230.696 292.246,234.399 285.859,235.224 284.417 C 236.251 282.621,235.774 283.444,239.444 277.127 C 245.862 266.079,249.566 259.692,250.391 258.250 C 251.417 256.454,250.941 257.277,254.610 250.961 C 261.029 239.912,264.733 233.525,265.557 232.083 C 266.029 231.258,266.490 230.453,266.582 230.295 C 268.424 227.121,273.127 219.012,273.250 218.797 C 273.342 218.636,274.779 216.160,276.443 213.294 C 278.108 210.428,279.964 207.221,280.567 206.167 C 281.171 205.112,281.735 204.137,281.821 204.000 C 281.946 203.800,287.776 193.750,288.417 192.630 C 288.508 192.470,289.945 189.994,291.610 187.128 C 293.275 184.262,295.130 181.054,295.734 180.000 C 296.338 178.946,296.902 177.971,296.988 177.833 C 297.112 177.634,302.943 167.583,303.583 166.463 C 303.675 166.303,305.112 163.827,306.777 160.961 C 308.441 158.095,310.297 154.887,310.901 153.833 C 311.504 152.779,312.068 151.804,312.154 151.667 C 312.279 151.467,318.109 141.417,318.750 140.297 C 318.842 140.136,320.279 137.660,321.943 134.794 C 323.608 131.928,325.464 128.721,326.067 127.667 C 326.671 126.612,327.235 125.638,327.321 125.500 C 327.446 125.300,333.276 115.250,333.917 114.130 C 334.008 113.970,335.445 111.494,337.110 108.628 C 338.775 105.762,340.630 102.554,341.234 101.500 C 341.838 100.446,342.402 99.471,342.488 99.333 C 342.612 99.134,348.443 89.083,349.083 87.963 C 349.175 87.803,350.612 85.327,352.277 82.461 C 353.941 79.595,355.797 76.387,356.401 75.333 C 357.004 74.279,357.568 73.304,357.654 73.167 C 357.784 72.959,363.716 62.731,364.250 61.796 C 364.342 61.635,365.387 59.834,366.573 57.793 C 367.759 55.753,369.617 52.546,370.701 50.667 C 371.785 48.788,372.741 47.137,372.825 47.000 C 372.963 46.774,379.021 36.324,379.417 35.629 C 379.508 35.468,380.554 33.667,381.740 31.627 C 382.926 29.586,384.784 26.379,385.868 24.500 C 386.952 22.621,387.908 20.971,387.992 20.833 C 388.244 20.421,392.219 13.560,393.400 11.500 C 394.004 10.446,394.568 9.471,394.654 9.333 C 395.004 8.774,399.921 0.278,399.972 0.145 C 400.003 0.063,382.552 0.000,360.042 0.000 L 320.056 0.000 260.070 103.998 C 227.077 161.198,200.040 207.998,199.987 207.998 C 199.935 207.999,172.672 161.201,139.404 104.001 L 78.917 0.002 39.458 0.001 C 17.756 0.001,0.000 0.037,0.000 0.082 " stroke="none" fill="#44bc84" fill-rule="evenodd"></path><path id="path2" d="M245.583 0.500 C 245.441 0.775,245.362 1.000,245.408 1.000 C 245.454 1.000,245.608 0.775,245.750 0.500 C 245.892 0.225,245.971 -0.000,245.925 -0.000 C 245.879 -0.000,245.726 0.225,245.583 0.500 M154.883 3.292 C 155.385 4.201,156.389 5.833,156.445 5.833 C 156.533 5.833,156.572 5.908,155.672 4.375 C 155.281 3.710,154.929 3.167,154.888 3.167 C 154.847 3.167,154.845 3.223,154.883 3.292 M243.750 3.667 C 243.608 3.942,243.529 4.167,243.575 4.167 C 243.621 4.167,243.774 3.942,243.917 3.667 C 244.059 3.392,244.138 3.167,244.092 3.167 C 244.046 3.167,243.892 3.392,243.750 3.667 M242.289 6.208 C 241.703 7.221,241.434 7.776,241.621 7.583 C 241.848 7.350,242.875 5.500,242.778 5.500 C 242.734 5.500,242.514 5.819,242.289 6.208 M156.750 6.500 C 156.892 6.775,157.046 7.000,157.092 7.000 C 157.138 7.000,157.059 6.775,156.917 6.500 C 156.774 6.225,156.621 6.000,156.575 6.000 C 156.529 6.000,156.608 6.225,156.750 6.500 M239.917 10.333 C 239.774 10.608,239.696 10.833,239.741 10.833 C 239.787 10.833,239.941 10.608,240.083 10.333 C 240.226 10.058,240.304 9.833,240.259 9.833 C 240.213 9.833,240.059 10.058,239.917 10.333 M237.917 13.833 C 237.774 14.108,237.696 14.333,237.741 14.333 C 237.787 14.333,237.941 14.108,238.083 13.833 C 238.226 13.558,238.304 13.333,238.259 13.333 C 238.213 13.333,238.059 13.558,237.917 13.833 M161.427 14.458 C 161.997 15.443,162.333 15.941,162.333 15.799 C 162.333 15.642,161.143 13.667,161.048 13.667 C 161.004 13.667,161.175 14.023,161.427 14.458 M162.917 17.000 C 163.059 17.275,163.213 17.500,163.259 17.500 C 163.304 17.500,163.226 17.275,163.083 17.000 C 162.941 16.725,162.787 16.500,162.741 16.500 C 162.696 16.500,162.774 16.725,162.917 17.000 M236.083 17.000 C 235.941 17.275,235.862 17.500,235.908 17.500 C 235.954 17.500,236.108 17.275,236.250 17.000 C 236.392 16.725,236.471 16.500,236.425 16.500 C 236.379 16.500,236.226 16.725,236.083 17.000 M234.083 20.500 C 233.941 20.775,233.862 21.000,233.908 21.000 C 233.954 21.000,234.108 20.775,234.250 20.500 C 234.392 20.225,234.471 20.000,234.425 20.000 C 234.379 20.000,234.226 20.225,234.083 20.500 M233.417 21.667 C 233.274 21.942,233.196 22.167,233.241 22.167 C 233.287 22.167,233.441 21.942,233.583 21.667 C 233.726 21.392,233.804 21.167,233.759 21.167 C 233.713 21.167,233.559 21.392,233.417 21.667 M232.250 23.667 C 232.108 23.942,232.029 24.167,232.075 24.167 C 232.121 24.167,232.274 23.942,232.417 23.667 C 232.559 23.392,232.638 23.167,232.592 23.167 C 232.546 23.167,232.392 23.392,232.250 23.667 M230.122 27.375 C 229.536 28.388,229.267 28.943,229.455 28.750 C 229.681 28.517,230.709 26.667,230.611 26.667 C 230.568 26.667,230.347 26.985,230.122 27.375 M168.883 27.125 C 169.385 28.035,170.389 29.667,170.445 29.667 C 170.533 29.667,170.572 29.741,169.672 28.208 C 169.281 27.544,168.929 27.000,168.888 27.000 C 168.847 27.000,168.845 27.056,168.883 27.125 M170.750 30.333 C 170.892 30.608,171.046 30.833,171.092 30.833 C 171.138 30.833,171.059 30.608,170.917 30.333 C 170.774 30.058,170.621 29.833,170.575 29.833 C 170.529 29.833,170.608 30.058,170.750 30.333 M228.417 30.333 C 228.274 30.608,228.196 30.833,228.241 30.833 C 228.287 30.833,228.441 30.608,228.583 30.333 C 228.726 30.058,228.804 29.833,228.759 29.833 C 228.713 29.833,228.559 30.058,228.417 30.333 M226.289 34.042 C 225.703 35.054,225.434 35.610,225.621 35.417 C 225.848 35.183,226.875 33.333,226.778 33.333 C 226.734 33.333,226.514 33.652,226.289 34.042 M224.583 37.000 C 224.441 37.275,224.362 37.500,224.408 37.500 C 224.454 37.500,224.608 37.275,224.750 37.000 C 224.892 36.725,224.971 36.500,224.925 36.500 C 224.879 36.500,224.726 36.725,224.583 37.000 M175.427 38.292 C 175.997 39.277,176.333 39.774,176.333 39.632 C 176.333 39.475,175.143 37.500,175.048 37.500 C 175.004 37.500,175.175 37.856,175.427 38.292 M223.917 38.167 C 223.774 38.442,223.696 38.667,223.741 38.667 C 223.787 38.667,223.941 38.442,224.083 38.167 C 224.226 37.892,224.304 37.667,224.259 37.667 C 224.213 37.667,224.059 37.892,223.917 38.167 M176.917 40.833 C 177.059 41.108,177.213 41.333,177.259 41.333 C 177.304 41.333,177.226 41.108,177.083 40.833 C 176.941 40.558,176.787 40.333,176.741 40.333 C 176.696 40.333,176.774 40.558,176.917 40.833 M222.461 40.708 C 222.102 41.259,221.603 42.277,221.787 42.083 C 222.005 41.854,222.864 40.333,222.776 40.333 C 222.737 40.333,222.595 40.502,222.461 40.708 M220.750 43.667 C 220.608 43.942,220.529 44.167,220.575 44.167 C 220.621 44.167,220.774 43.942,220.917 43.667 C 221.059 43.392,221.138 43.167,221.092 43.167 C 221.046 43.167,220.892 43.392,220.750 43.667 M220.083 44.833 C 219.941 45.108,219.862 45.333,219.908 45.333 C 219.954 45.333,220.108 45.108,220.250 44.833 C 220.392 44.558,220.471 44.333,220.425 44.333 C 220.379 44.333,220.226 44.558,220.083 44.833 M218.622 47.375 C 218.036 48.388,217.767 48.943,217.955 48.750 C 218.181 48.517,219.209 46.667,219.111 46.667 C 219.068 46.667,218.847 46.985,218.622 47.375 M182.883 50.958 C 183.385 51.868,184.389 53.500,184.445 53.500 C 184.533 53.500,184.572 53.575,183.672 52.042 C 183.281 51.377,182.929 50.833,182.888 50.833 C 182.847 50.833,182.845 50.890,182.883 50.958 M216.250 51.500 C 216.108 51.775,216.029 52.000,216.075 52.000 C 216.121 52.000,216.274 51.775,216.417 51.500 C 216.559 51.225,216.638 51.000,216.592 51.000 C 216.546 51.000,216.392 51.225,216.250 51.500 M214.789 54.042 C 214.203 55.054,213.934 55.610,214.121 55.417 C 214.348 55.183,215.375 53.333,215.278 53.333 C 215.234 53.333,215.014 53.652,214.789 54.042 M212.417 58.167 C 212.274 58.442,212.196 58.667,212.241 58.667 C 212.287 58.667,212.441 58.442,212.583 58.167 C 212.726 57.892,212.804 57.667,212.759 57.667 C 212.713 57.667,212.559 57.892,212.417 58.167 M210.417 61.667 C 210.274 61.942,210.196 62.167,210.241 62.167 C 210.287 62.167,210.441 61.942,210.583 61.667 C 210.726 61.392,210.804 61.167,210.759 61.167 C 210.713 61.167,210.559 61.392,210.417 61.667 M189.049 61.458 C 189.552 62.368,190.555 64.000,190.612 64.000 C 190.699 64.000,190.739 64.075,189.838 62.542 C 189.448 61.877,189.095 61.333,189.055 61.333 C 189.014 61.333,189.011 61.390,189.049 61.458 M190.917 64.667 C 191.059 64.942,191.213 65.167,191.259 65.167 C 191.304 65.167,191.226 64.942,191.083 64.667 C 190.941 64.392,190.787 64.167,190.741 64.167 C 190.696 64.167,190.774 64.392,190.917 64.667 M208.583 64.833 C 208.441 65.108,208.362 65.333,208.408 65.333 C 208.454 65.333,208.608 65.108,208.750 64.833 C 208.892 64.558,208.971 64.333,208.925 64.333 C 208.879 64.333,208.726 64.558,208.583 64.833 M206.583 68.333 C 206.441 68.608,206.362 68.833,206.408 68.833 C 206.454 68.833,206.608 68.608,206.750 68.333 C 206.892 68.058,206.971 67.833,206.925 67.833 C 206.879 67.833,206.726 68.058,206.583 68.333 M205.917 69.500 C 205.774 69.775,205.696 70.000,205.741 70.000 C 205.787 70.000,205.941 69.775,206.083 69.500 C 206.226 69.225,206.304 69.000,206.259 69.000 C 206.213 69.000,206.059 69.225,205.917 69.500 M204.750 71.500 C 204.608 71.775,204.529 72.000,204.575 72.000 C 204.621 72.000,204.774 71.775,204.917 71.500 C 205.059 71.225,205.138 71.000,205.092 71.000 C 205.046 71.000,204.892 71.225,204.750 71.500 M202.622 75.208 C 202.036 76.221,201.767 76.776,201.955 76.583 C 202.181 76.350,203.209 74.500,203.111 74.500 C 203.068 74.500,202.847 74.819,202.622 75.208 M196.883 74.792 C 197.385 75.701,198.389 77.333,198.445 77.333 C 198.533 77.333,198.572 77.408,197.672 75.875 C 197.281 75.210,196.929 74.667,196.888 74.667 C 196.847 74.667,196.845 74.723,196.883 74.792 M200.917 78.167 C 200.774 78.442,200.696 78.667,200.741 78.667 C 200.787 78.667,200.941 78.442,201.083 78.167 C 201.226 77.892,201.304 77.667,201.259 77.667 C 201.213 77.667,201.059 77.892,200.917 78.167 M200.223 79.426 C 200.168 79.569,200.025 79.648,199.904 79.601 C 199.764 79.548,199.717 79.605,199.776 79.758 C 199.827 79.890,199.935 79.957,200.017 79.906 C 200.205 79.790,200.543 79.167,200.417 79.167 C 200.365 79.167,200.278 79.283,200.223 79.426 " stroke="none" fill="#3c736c" fill-rule="evenodd"></path><path id="path3" d="" stroke="none" fill="#3da57c" fill-rule="evenodd"></path><path id="path4" d="" stroke="none" fill="#3c8d74" fill-rule="evenodd"></path></g></svg>